<svg id="Layer_3" enable-background="new 0 0 64 64" height="512" viewBox="0 0 64 64" width="512" xmlns="http://www.w3.org/2000/svg"><g><path d="m31.77 14.25c-.164-.635-.414-1.24-.745-1.799-.232-.393-.168-.893.154-1.215l.892-.892-1.415-1.415-.892.892c-.323.322-.823.385-1.215.154-.56-.331-1.165-.581-1.799-.745-.441-.113-.75-.512-.75-.968v-1.262h-2v1.262c0 .456-.309.854-.75.968-.635.164-1.24.414-1.799.745-.392.232-.893.168-1.215-.154l-.892-.892-1.415 1.415.892.892c.323.322.386.823.154 1.215-.331.56-.581 1.165-.745 1.799-.113.441-.512.75-.968.75h-1.262v2h1.262c.456 0 .854.309.968.75.164.635.414 1.24.745 1.799.232.393.168.893-.154 1.215l-.892.892 1.415 1.415.892-.892c.322-.323.822-.386 1.215-.154.56.331 1.165.581 1.799.745.441.114.75.512.75.968v1.262h2v-1.262c0-.456.309-.854.75-.968.635-.164 1.24-.414 1.799-.745.394-.23.893-.168 1.215.154l.892.892 1.415-1.415-.892-.892c-.323-.322-.386-.823-.154-1.215.331-.56.581-1.165.745-1.799.114-.441.512-.75.968-.75h1.262v-2h-1.262c-.456 0-.855-.309-.968-.75zm-6.77 7.75c-3.309 0-6-2.691-6-6s2.691-6 6-6 6 2.691 6 6-2.691 6-6 6z"/><circle cx="16" cy="48" r="2"/><circle cx="25" cy="16" r="4"/><path d="m26.834 46.166c-.277-1.649-.908-3.174-1.875-4.531-.283-.398-.238-.942.107-1.287l.833-.833-1.414-1.414-.833.833c-.344.345-.888.391-1.287.107-1.357-.966-2.882-1.597-4.531-1.875-.481-.081-.834-.498-.834-.986v-1.18h-2v1.18c0 .488-.353.905-.834.986-1.649.277-3.174.908-4.531 1.875-.397.284-.941.238-1.287-.107l-.833-.833-1.414 1.414.833.833c.345.345.391.889.107 1.287-.966 1.357-1.597 2.882-1.875 4.531-.081.481-.498.834-.986.834h-1.18v2h1.18c.488 0 .905.353.986.834.277 1.649.908 3.174 1.875 4.531.283.398.238.942-.107 1.287l-.833.833 1.414 1.414.833-.833c.345-.345.89-.391 1.287-.107 1.357.966 2.882 1.597 4.531 1.875.481.081.834.498.834.986v1.18h2v-1.18c0-.488.353-.905.834-.986 1.649-.277 3.174-.908 4.531-1.875.399-.283.942-.238 1.287.107l.833.833 1.414-1.414-.833-.833c-.345-.345-.391-.889-.107-1.287.966-1.357 1.597-2.882 1.875-4.531.081-.481.498-.834.986-.834h1.18v-2h-1.18c-.488 0-.905-.353-.986-.834zm-10.834 11.834c-5.514 0-10-4.486-10-10s4.486-10 10-10 10 4.486 10 10-4.486 10-10 10z"/><path d="m16 40c-4.411 0-8 3.589-8 8s3.589 8 8 8 8-3.589 8-8-3.589-8-8-8zm0 12c-2.206 0-4-1.794-4-4s1.794-4 4-4 4 1.794 4 4-1.794 4-4 4z"/><path d="m24 31h13v3h-13z"/><path d="m52 21v-17c0-.551-.449-1-1-1h-38c-.551 0-1 .449-1 1v24c0 .551.449 1 1 1h24v-5c0-1.654 1.346-3 3-3zm-16-3c0 .552-.448 1-1 1h-1.522c-.105.298-.226.589-.361.873l1.076 1.077c.391.391.391 1.023 0 1.414l-2.829 2.829c-.391.391-1.023.391-1.414 0l-1.077-1.076c-.284.135-.575.256-.873.361v1.522c0 .552-.448 1-1 1h-4c-.552 0-1-.448-1-1v-1.522c-.298-.105-.589-.226-.873-.361l-1.077 1.076c-.391.391-1.023.391-1.414 0l-2.829-2.829c-.391-.391-.391-1.023 0-1.414l1.076-1.077c-.135-.284-.256-.575-.361-.873h-1.522c-.552 0-1-.448-1-1v-4c0-.552.448-1 1-1h1.522c.105-.298.226-.589.361-.873l-1.076-1.077c-.391-.391-.391-1.023 0-1.414l2.829-2.829c.391-.391 1.023-.391 1.414 0l1.077 1.076c.284-.134.575-.255.873-.361v-1.522c0-.552.448-1 1-1h4c.552 0 1 .448 1 1v1.522c.298.105.589.226.873.361l1.077-1.076c.391-.391 1.023-.391 1.414 0l2.829 2.829c.391.391.391 1.023 0 1.414l-1.076 1.077c.135.284.256.575.361.873h1.522c.552 0 1 .448 1 1z"/><path d="m60 23h-20c-.551 0-1 .449-1 1v36c0 .551.449 1 1 1h20c.551 0 1-.449 1-1v-36c0-.551-.449-1-1-1zm-9 37h-2v-2h2zm9-4c0 .552-.448 1-1 1h-18c-.552 0-1-.448-1-1v-31c0-.552.448-1 1-1h18c.552 0 1 .448 1 1z"/><path d="m42 26h16v29h-16z"/></g></svg>