<?xml version="1.0" encoding="UTF-8"?>
<svg xmlns="http://www.w3.org/2000/svg" xmlns:xlink="http://www.w3.org/1999/xlink" width="60pt" height="60pt" viewBox="0 0 60 60" version="1.1">
<g id="surface1">
<path style=" stroke:none;fill-rule:nonzero;fill:rgb(0%,0%,0%);fill-opacity:1;" d="M 29.785156 13.359375 C 29.628906 12.765625 29.394531 12.195312 29.085938 11.671875 C 28.867188 11.304688 28.929688 10.835938 29.230469 10.535156 L 30.066406 9.699219 L 28.738281 8.371094 L 27.902344 9.207031 C 27.601562 9.507812 27.132812 9.566406 26.765625 9.351562 C 26.238281 9.042969 25.671875 8.808594 25.078125 8.652344 C 24.664062 8.546875 24.375 8.171875 24.375 7.746094 L 24.375 6.5625 L 22.5 6.5625 L 22.5 7.746094 C 22.5 8.171875 22.210938 8.546875 21.796875 8.652344 C 21.203125 8.808594 20.632812 9.042969 20.109375 9.351562 C 19.742188 9.570312 19.273438 9.507812 18.972656 9.207031 L 18.136719 8.371094 L 16.808594 9.699219 L 17.644531 10.535156 C 17.949219 10.835938 18.007812 11.304688 17.789062 11.671875 C 17.480469 12.199219 17.246094 12.765625 17.089844 13.359375 C 16.984375 13.773438 16.609375 14.0625 16.183594 14.0625 L 15 14.0625 L 15 15.9375 L 16.183594 15.9375 C 16.609375 15.9375 16.984375 16.226562 17.089844 16.640625 C 17.246094 17.234375 17.480469 17.804688 17.789062 18.328125 C 18.007812 18.695312 17.945312 19.164062 17.644531 19.464844 L 16.808594 20.300781 L 18.136719 21.628906 L 18.972656 20.792969 C 19.273438 20.488281 19.742188 20.429688 20.109375 20.648438 C 20.636719 20.957031 21.203125 21.191406 21.796875 21.347656 C 22.210938 21.453125 22.5 21.828125 22.5 22.253906 L 22.5 23.4375 L 24.375 23.4375 L 24.375 22.253906 C 24.375 21.828125 24.664062 21.453125 25.078125 21.347656 C 25.671875 21.191406 26.242188 20.957031 26.765625 20.648438 C 27.132812 20.433594 27.601562 20.492188 27.902344 20.792969 L 28.738281 21.628906 L 30.066406 20.300781 L 29.230469 19.464844 C 28.925781 19.164062 28.867188 18.695312 29.085938 18.328125 C 29.394531 17.800781 29.628906 17.234375 29.785156 16.640625 C 29.890625 16.226562 30.265625 15.9375 30.691406 15.9375 L 31.875 15.9375 L 31.875 14.0625 L 30.691406 14.0625 C 30.265625 14.0625 29.890625 13.773438 29.785156 13.359375 Z M 23.4375 20.625 C 20.335938 20.625 17.8125 18.101562 17.8125 15 C 17.8125 11.898438 20.335938 9.375 23.4375 9.375 C 26.539062 9.375 29.0625 11.898438 29.0625 15 C 29.0625 18.101562 26.539062 20.625 23.4375 20.625 Z M 23.4375 20.625 "/>
<path style=" stroke:none;fill-rule:nonzero;fill:rgb(0%,0%,0%);fill-opacity:1;" d="M 16.875 45 C 16.875 46.035156 16.035156 46.875 15 46.875 C 13.964844 46.875 13.125 46.035156 13.125 45 C 13.125 43.964844 13.964844 43.125 15 43.125 C 16.035156 43.125 16.875 43.964844 16.875 45 Z M 16.875 45 "/>
<path style=" stroke:none;fill-rule:nonzero;fill:rgb(0%,0%,0%);fill-opacity:1;" d="M 27.1875 15 C 27.1875 17.070312 25.507812 18.75 23.4375 18.75 C 21.367188 18.75 19.6875 17.070312 19.6875 15 C 19.6875 12.929688 21.367188 11.25 23.4375 11.25 C 25.507812 11.25 27.1875 12.929688 27.1875 15 Z M 27.1875 15 "/>
<path style=" stroke:none;fill-rule:nonzero;fill:rgb(0%,0%,0%);fill-opacity:1;" d="M 25.15625 43.28125 C 24.898438 41.734375 24.304688 40.304688 23.398438 39.03125 C 23.132812 38.660156 23.175781 38.148438 23.5 37.828125 L 24.28125 37.046875 L 22.953125 35.71875 L 22.171875 36.5 C 21.851562 36.824219 21.339844 36.867188 20.96875 36.601562 C 19.695312 35.695312 18.265625 35.105469 16.71875 34.84375 C 16.269531 34.765625 15.9375 34.375 15.9375 33.917969 L 15.9375 32.8125 L 14.0625 32.8125 L 14.0625 33.917969 C 14.0625 34.375 13.730469 34.765625 13.28125 34.84375 C 11.734375 35.101562 10.304688 35.695312 9.03125 36.601562 C 8.660156 36.867188 8.152344 36.824219 7.828125 36.5 L 7.046875 35.71875 L 5.71875 37.046875 L 6.5 37.828125 C 6.824219 38.148438 6.867188 38.660156 6.601562 39.03125 C 5.695312 40.304688 5.105469 41.734375 4.84375 43.28125 C 4.765625 43.730469 4.375 44.0625 3.917969 44.0625 L 2.8125 44.0625 L 2.8125 45.9375 L 3.917969 45.9375 C 4.375 45.9375 4.765625 46.269531 4.84375 46.71875 C 5.101562 48.265625 5.695312 49.695312 6.601562 50.96875 C 6.867188 51.339844 6.824219 51.851562 6.5 52.171875 L 5.71875 52.953125 L 7.046875 54.28125 L 7.828125 53.5 C 8.148438 53.175781 8.660156 53.132812 9.03125 53.398438 C 10.304688 54.304688 11.734375 54.894531 13.28125 55.15625 C 13.730469 55.234375 14.0625 55.625 14.0625 56.082031 L 14.0625 57.1875 L 15.9375 57.1875 L 15.9375 56.082031 C 15.9375 55.625 16.269531 55.234375 16.71875 55.15625 C 18.265625 54.898438 19.695312 54.304688 20.96875 53.398438 C 21.339844 53.132812 21.851562 53.175781 22.171875 53.5 L 22.953125 54.28125 L 24.28125 52.953125 L 23.5 52.171875 C 23.175781 51.851562 23.132812 51.339844 23.398438 50.96875 C 24.304688 49.695312 24.894531 48.265625 25.15625 46.71875 C 25.234375 46.269531 25.625 45.9375 26.082031 45.9375 L 27.1875 45.9375 L 27.1875 44.0625 L 26.082031 44.0625 C 25.625 44.0625 25.234375 43.730469 25.15625 43.28125 Z M 15 54.375 C 9.832031 54.375 5.625 50.167969 5.625 45 C 5.625 39.832031 9.832031 35.625 15 35.625 C 20.167969 35.625 24.375 39.832031 24.375 45 C 24.375 50.167969 20.167969 54.375 15 54.375 Z M 15 54.375 "/>
<path style=" stroke:none;fill-rule:nonzero;fill:rgb(0%,0%,0%);fill-opacity:1;" d="M 15 37.5 C 10.863281 37.5 7.5 40.863281 7.5 45 C 7.5 49.136719 10.863281 52.5 15 52.5 C 19.136719 52.5 22.5 49.136719 22.5 45 C 22.5 40.863281 19.136719 37.5 15 37.5 Z M 15 48.75 C 12.933594 48.75 11.25 47.066406 11.25 45 C 11.25 42.933594 12.933594 41.25 15 41.25 C 17.066406 41.25 18.75 42.933594 18.75 45 C 18.75 47.066406 17.066406 48.75 15 48.75 Z M 15 48.75 "/>
<path style=" stroke:none;fill-rule:nonzero;fill:rgb(0%,0%,0%);fill-opacity:1;" d="M 22.5 29.0625 L 34.6875 29.0625 L 34.6875 31.875 L 22.5 31.875 Z M 22.5 29.0625 "/>
<path style=" stroke:none;fill-rule:nonzero;fill:rgb(0%,0%,0%);fill-opacity:1;" d="M 48.75 19.6875 L 48.75 3.75 C 48.75 3.234375 48.328125 2.8125 47.8125 2.8125 L 12.1875 2.8125 C 11.671875 2.8125 11.25 3.234375 11.25 3.75 L 11.25 26.25 C 11.25 26.765625 11.671875 27.1875 12.1875 27.1875 L 34.6875 27.1875 L 34.6875 22.5 C 34.6875 20.949219 35.949219 19.6875 37.5 19.6875 Z M 33.75 16.875 C 33.75 17.390625 33.328125 17.8125 32.8125 17.8125 L 31.386719 17.8125 C 31.289062 18.09375 31.171875 18.363281 31.046875 18.632812 L 32.054688 19.640625 C 32.421875 20.007812 32.421875 20.601562 32.054688 20.964844 L 29.402344 23.617188 C 29.039062 23.984375 28.445312 23.984375 28.078125 23.617188 L 27.070312 22.609375 C 26.800781 22.734375 26.53125 22.851562 26.25 22.949219 L 26.25 24.375 C 26.25 24.890625 25.828125 25.3125 25.3125 25.3125 L 21.5625 25.3125 C 21.046875 25.3125 20.625 24.890625 20.625 24.375 L 20.625 22.949219 C 20.34375 22.851562 20.074219 22.734375 19.804688 22.609375 L 18.796875 23.617188 C 18.429688 23.984375 17.835938 23.984375 17.472656 23.617188 L 14.820312 20.964844 C 14.453125 20.601562 14.453125 20.007812 14.820312 19.640625 L 15.828125 18.632812 C 15.703125 18.363281 15.585938 18.09375 15.488281 17.8125 L 14.0625 17.8125 C 13.546875 17.8125 13.125 17.390625 13.125 16.875 L 13.125 13.125 C 13.125 12.609375 13.546875 12.1875 14.0625 12.1875 L 15.488281 12.1875 C 15.585938 11.90625 15.703125 11.636719 15.828125 11.367188 L 14.820312 10.359375 C 14.453125 9.992188 14.453125 9.398438 14.820312 9.035156 L 17.472656 6.382812 C 17.835938 6.015625 18.429688 6.015625 18.796875 6.382812 L 19.804688 7.390625 C 20.074219 7.265625 20.34375 7.152344 20.625 7.050781 L 20.625 5.625 C 20.625 5.109375 21.046875 4.6875 21.5625 4.6875 L 25.3125 4.6875 C 25.828125 4.6875 26.25 5.109375 26.25 5.625 L 26.25 7.050781 C 26.53125 7.148438 26.800781 7.265625 27.070312 7.390625 L 28.078125 6.382812 C 28.445312 6.015625 29.039062 6.015625 29.402344 6.382812 L 32.054688 9.035156 C 32.421875 9.398438 32.421875 9.992188 32.054688 10.359375 L 31.046875 11.367188 C 31.171875 11.636719 31.289062 11.90625 31.386719 12.1875 L 32.8125 12.1875 C 33.328125 12.1875 33.75 12.609375 33.75 13.125 Z M 33.75 16.875 "/>
<path style=" stroke:none;fill-rule:nonzero;fill:rgb(0%,0%,0%);fill-opacity:1;" d="M 56.25 21.5625 L 37.5 21.5625 C 36.984375 21.5625 36.5625 21.984375 36.5625 22.5 L 36.5625 56.25 C 36.5625 56.765625 36.984375 57.1875 37.5 57.1875 L 56.25 57.1875 C 56.765625 57.1875 57.1875 56.765625 57.1875 56.25 L 57.1875 22.5 C 57.1875 21.984375 56.765625 21.5625 56.25 21.5625 Z M 47.8125 56.25 L 45.9375 56.25 L 45.9375 54.375 L 47.8125 54.375 Z M 56.25 52.5 C 56.25 53.015625 55.828125 53.4375 55.3125 53.4375 L 38.4375 53.4375 C 37.921875 53.4375 37.5 53.015625 37.5 52.5 L 37.5 23.4375 C 37.5 22.921875 37.921875 22.5 38.4375 22.5 L 55.3125 22.5 C 55.828125 22.5 56.25 22.921875 56.25 23.4375 Z M 56.25 52.5 "/>
<path style=" stroke:none;fill-rule:nonzero;fill:rgb(0%,0%,0%);fill-opacity:1;" d="M 39.375 24.375 L 54.375 24.375 L 54.375 51.5625 L 39.375 51.5625 Z M 39.375 24.375 "/>
</g>
</svg>
