<?xml version="1.0" encoding="UTF-8"?>
<svg xmlns="http://www.w3.org/2000/svg" xmlns:xlink="http://www.w3.org/1999/xlink" width="60pt" height="60pt" viewBox="0 0 60 60" version="1.1">
<g id="surface1">
<path style=" stroke:none;fill-rule:nonzero;fill:rgb(0%,0%,0%);fill-opacity:1;" d="M 58.960938 3.796875 C 58.363281 3.515625 57.660156 3.585938 57.132812 4.007812 C 56.605469 4.429688 44.488281 14.25 40.65625 22.511719 C 39.496094 25.007812 39.179688 27.714844 39.8125 30.175781 C 40.269531 32.109375 41.289062 33.726562 42.660156 34.851562 L 42.695312 34.851562 L 47.792969 23.882812 C 48.179688 23.003906 49.234375 22.617188 50.113281 23.039062 C 50.992188 23.425781 51.378906 24.480469 50.957031 25.359375 L 45.894531 36.328125 C 46.386719 36.433594 46.878906 36.46875 47.371094 36.46875 C 50.992188 36.46875 54.71875 33.972656 56.617188 29.929688 C 60.449219 21.667969 59.980469 5.976562 59.980469 5.34375 C 59.945312 4.675781 59.558594 4.078125 58.960938 3.796875 Z M 58.960938 3.796875 "/>
<path style=" stroke:none;fill-rule:nonzero;fill:rgb(0%,0%,0%);fill-opacity:1;" d="M 49.339844 45.820312 L 49.339844 40.546875 C 49.339844 39.574219 48.550781 38.789062 47.582031 38.789062 L 42.308594 38.789062 L 42.308594 45.820312 C 42.308594 47.761719 43.882812 49.335938 45.824219 49.335938 C 47.765625 49.335938 49.339844 47.761719 49.339844 45.820312 Z M 49.339844 45.820312 "/>
<path style=" stroke:none;fill-rule:nonzero;fill:rgb(0%,0%,0%);fill-opacity:1;" d="M 42.308594 5.273438 C 42.308594 2.367188 39.941406 0 37.035156 0 C 17.65625 0 17.65625 0 12.378906 0 C 13.304688 1.222656 13.898438 2.679688 14.082031 4.277344 C 14.136719 4.566406 14.175781 4.859375 14.179688 5.15625 C 14.203125 6.171875 14.921875 7.03125 15.941406 7.03125 L 40.550781 7.03125 C 41.519531 7.03125 42.308594 6.246094 42.308594 5.273438 Z M 42.308594 5.273438 "/>
<path style=" stroke:none;fill-rule:nonzero;fill:rgb(0%,0%,0%);fill-opacity:1;" d="M 38.792969 45.820312 L 38.792969 38.789062 L 33.519531 38.789062 C 32.546875 38.789062 31.761719 39.574219 31.761719 40.546875 L 31.761719 42.480469 C 27.753906 43.296875 24.730469 46.847656 24.730469 51.09375 L 24.730469 58.242188 C 24.730469 59.214844 25.515625 60 26.488281 60 L 54.613281 60 C 55.582031 60 56.371094 59.214844 56.371094 58.242188 L 56.371094 51.09375 C 56.371094 48.230469 54.976562 45.710938 52.855469 44.105469 L 52.855469 45.714844 C 52.855469 49.574219 49.789062 52.792969 45.929688 52.851562 C 42.003906 52.910156 38.792969 49.734375 38.792969 45.820312 Z M 38.792969 45.820312 "/>
<path style=" stroke:none;fill-rule:nonzero;fill:rgb(0%,0%,0%);fill-opacity:1;" d="M 1.878906 60 L 21.539062 60 C 21.339844 59.449219 21.214844 58.863281 21.214844 58.242188 L 21.214844 51.09375 C 21.214844 46.269531 24.054688 41.960938 28.277344 39.964844 C 28.570312 37.328125 30.808594 35.273438 33.519531 35.273438 L 35.277344 35.273438 L 35.277344 10.546875 L 15.941406 10.546875 C 13.0625 10.546875 10.757812 8.234375 10.671875 5.273438 L 10.667969 5.273438 C 10.667969 2.359375 8.304688 0 5.394531 0 C 2.480469 0 0.00390625 2.359375 0.00390625 5.273438 C 0.00390625 6.277344 0.00390625 59.050781 0.00390625 58.242188 C 0.00390625 59.214844 0.90625 60 1.878906 60 Z M 7.152344 19.453125 C 7.152344 18.480469 7.9375 17.695312 8.910156 17.695312 C 9.878906 17.695312 10.667969 18.480469 10.667969 19.453125 L 10.667969 22.242188 L 11.183594 21.726562 C 11.511719 21.394531 11.957031 21.210938 12.425781 21.210938 L 15.210938 21.210938 L 18.214844 18.210938 C 18.714844 17.707031 19.472656 17.554688 20.128906 17.828125 C 20.785156 18.101562 21.214844 18.742188 21.214844 19.453125 L 21.214844 21.210938 L 26.488281 21.210938 C 27.457031 21.210938 28.246094 21.996094 28.246094 22.96875 C 28.246094 23.941406 27.457031 24.726562 26.488281 24.726562 L 19.457031 24.726562 C 18.703125 24.726562 18.058594 24.253906 17.808594 23.585938 L 17.183594 24.210938 C 16.851562 24.542969 16.40625 24.726562 15.941406 24.726562 L 13.152344 24.726562 L 10.152344 27.726562 C 9.644531 28.234375 8.882812 28.378906 8.234375 28.109375 C 7.578125 27.835938 7.152344 27.195312 7.152344 26.484375 Z M 8.910156 31.757812 L 17.699219 31.757812 L 17.699219 30 C 17.699219 29.289062 18.125 28.648438 18.78125 28.375 C 19.445312 28.105469 20.199219 28.257812 20.699219 28.757812 L 23.699219 31.757812 L 26.488281 31.757812 C 27.457031 31.757812 28.246094 32.542969 28.246094 33.515625 C 28.246094 34.488281 27.457031 35.273438 26.488281 35.273438 L 22.972656 35.273438 C 22.503906 35.273438 22.058594 35.089844 21.730469 34.757812 L 21.101562 34.132812 C 20.851562 34.800781 20.210938 35.273438 19.457031 35.273438 L 8.910156 35.273438 C 7.9375 35.273438 7.152344 34.488281 7.152344 33.515625 C 7.152344 32.542969 7.9375 31.757812 8.910156 31.757812 Z M 8.910156 38.789062 L 15.941406 38.789062 C 16.910156 38.789062 17.699219 39.574219 17.699219 40.546875 C 17.699219 41.519531 16.910156 42.304688 15.941406 42.304688 L 8.910156 42.304688 C 7.9375 42.304688 7.152344 41.519531 7.152344 40.546875 C 7.152344 39.574219 7.9375 38.789062 8.910156 38.789062 Z M 8.910156 38.789062 "/>
</g>
</svg>
