<svg id="Capa_1" enable-background="new 0 0 512 512" height="512" viewBox="0 0 512 512" width="512" xmlns="http://www.w3.org/2000/svg"><g><path d="m503.123 32.399c-5.099-2.399-11.1-1.8-15.601 1.802-4.499 3.6-107.9 87.398-140.599 157.899-9.901 21.299-12.601 44.399-7.202 65.4 3.9 16.5 12.601 30.3 24.3 39.901h.3l43.5-93.6c3.3-7.5 12.299-10.801 19.799-7.202 7.5 3.301 10.801 12.301 7.202 19.801l-43.2 93.6c4.199.899 8.399 1.199 12.599 1.199 30.899 0 62.701-21.299 78.9-55.8 32.699-70.499 28.7-204.399 28.7-209.801-.297-5.699-3.598-10.799-8.698-13.199z"/><path d="m421.023 391v-45c0-8.286-6.716-15-15-15h-45v60c0 16.567 13.431 30 30 30s30-13.433 30-30z"/><path d="m361.023 45c0-24.814-20.186-44.99-45-44.99-165.363-.002-165.363-.002-210.385-.002 7.886 10.415 12.962 22.869 14.526 36.498.474 2.463.791 4.962.848 7.489.192 8.688 6.321 16.005 15.011 16.005h210c8.291 0 15-6.709 15-15z"/><path d="m331.023 391v-60h-45c-8.284 0-15 6.716-15 15v16.509c-34.189 6.973-60 37.266-60 73.491v61c0 8.284 6.716 15 15 15h240c8.284 0 15-6.716 15-15v-61c0-24.419-11.884-45.943-30-59.645v13.736c0 32.932-26.157 60.409-59.085 60.902-33.509.502-60.915-26.598-60.915-59.993z"/><path d="m16.023 512h167.763c-1.681-4.715-2.763-9.716-2.763-15v-61c0-41.177 24.258-77.944 60.278-94.98 2.49-22.485 21.592-40.02 44.722-40.02h15v-211h-165c-24.565 0-44.224-19.744-44.973-45h-.027c0-24.853-20.147-45-45-45s-46 20.147-46 45c0 8.568 0 458.912 0 452 0 8.284 7.716 15 16 15zm45-346c0-8.291 6.709-15 15-15s15 6.709 15 15v23.789l4.395-4.395c2.812-2.812 6.621-4.395 10.605-4.395h23.789l25.605-25.605c4.292-4.292 10.737-5.61 16.348-3.252 5.61 2.314 9.258 7.793 9.258 13.857v15h45c8.291 0 15 6.709 15 15s-6.709 15-15 15h-60c-6.431 0-11.924-4.043-14.048-9.741l-5.347 5.347c-2.812 2.812-6.621 4.395-10.605 4.395h-23.789l-25.605 25.605c-4.325 4.323-10.814 5.561-16.348 3.252-5.61-2.314-9.258-7.793-9.258-13.857zm15 105h75v-15c0-6.064 3.647-11.543 9.258-13.857 5.64-2.314 12.07-1.025 16.348 3.252l25.605 25.605h23.789c8.291 0 15 6.709 15 15s-6.709 15-15 15h-30c-3.984 0-7.793-1.582-10.605-4.395l-5.347-5.347c-2.124 5.698-7.617 9.741-14.048 9.741h-90c-8.291 0-15-6.709-15-15s6.709-14.999 15-14.999zm0 60h60c8.291 0 15 6.709 15 15s-6.709 15-15 15h-60c-8.291 0-15-6.709-15-15s6.709-15 15-15z"/></g></svg>