<?xml version="1.0" encoding="UTF-8"?>
<svg xmlns="http://www.w3.org/2000/svg" xmlns:xlink="http://www.w3.org/1999/xlink" width="50pt" height="50pt" viewBox="0 0 50 50" version="1.1">
<g id="surface1">
<path style=" stroke:none;fill-rule:nonzero;fill:rgb(0%,0%,0%);fill-opacity:1;" d="M 18.015625 40.160156 C 17.667969 40.222656 17.515625 40.386719 17.558594 40.648438 C 17.601562 40.90625 17.796875 40.992188 18.144531 40.90625 C 18.492188 40.820312 18.644531 40.667969 18.601562 40.453125 C 18.558594 40.214844 18.363281 40.117188 18.015625 40.160156 Z M 18.015625 40.160156 "/>
<path style=" stroke:none;fill-rule:nonzero;fill:rgb(0%,0%,0%);fill-opacity:1;" d="M 16.160156 40.417969 C 15.816406 40.417969 15.640625 40.539062 15.640625 40.777344 C 15.640625 41.058594 15.824219 41.179688 16.195312 41.132812 C 16.539062 41.132812 16.714844 41.015625 16.714844 40.777344 C 16.714844 40.496094 16.53125 40.375 16.160156 40.417969 Z M 16.160156 40.417969 "/>
<path style=" stroke:none;fill-rule:nonzero;fill:rgb(0%,0%,0%);fill-opacity:1;" d="M 13.625 40.320312 C 13.539062 40.558594 13.679688 40.722656 14.046875 40.808594 C 14.371094 40.9375 14.578125 40.875 14.664062 40.613281 C 14.730469 40.375 14.589844 40.203125 14.242188 40.09375 C 13.917969 40.007812 13.710938 40.082031 13.625 40.320312 Z M 13.625 40.320312 "/>
<path style=" stroke:none;fill-rule:nonzero;fill:rgb(0%,0%,0%);fill-opacity:1;" d="M 47.199219 2.746094 C 45.367188 0.914062 43.164062 0 40.582031 0 L 9.363281 0 C 6.785156 0 4.578125 0.914062 2.746094 2.746094 C 0.914062 4.578125 0 6.785156 0 9.363281 L 0 40.582031 C 0 43.160156 0.914062 45.367188 2.746094 47.199219 C 4.578125 49.03125 6.785156 49.949219 9.363281 49.949219 L 16.648438 49.949219 C 17.125 49.949219 17.484375 49.929688 17.722656 49.898438 C 17.960938 49.867188 18.199219 49.726562 18.4375 49.476562 C 18.675781 49.226562 18.792969 48.863281 18.792969 48.386719 C 18.792969 48.320312 18.789062 47.585938 18.777344 46.175781 C 18.765625 44.765625 18.761719 43.648438 18.761719 42.824219 L 18.015625 42.957031 C 17.535156 43.042969 16.933594 43.082031 16.210938 43.070312 C 15.484375 43.058594 14.730469 42.984375 13.949219 42.84375 C 13.167969 42.699219 12.441406 42.375 11.769531 41.867188 C 11.097656 41.355469 10.621094 40.691406 10.339844 39.867188 L 10.015625 39.117188 C 9.796875 38.621094 9.457031 38.066406 8.992188 37.460938 C 8.523438 36.851562 8.054688 36.441406 7.574219 36.226562 L 7.347656 36.0625 C 7.195312 35.953125 7.054688 35.824219 6.925781 35.671875 C 6.796875 35.519531 6.699219 35.367188 6.632812 35.214844 C 6.566406 35.0625 6.621094 34.941406 6.796875 34.839844 C 6.96875 34.746094 7.285156 34.695312 7.738281 34.695312 L 8.390625 34.792969 C 8.824219 34.878906 9.359375 35.140625 10 35.574219 C 10.636719 36.007812 11.164062 36.570312 11.574219 37.265625 C 12.074219 38.152344 12.675781 38.832031 13.378906 39.296875 C 14.085938 39.761719 14.796875 39.996094 15.511719 39.996094 C 16.226562 39.996094 16.84375 39.941406 17.363281 39.832031 C 17.882812 39.726562 18.371094 39.5625 18.828125 39.34375 C 19.023438 37.894531 19.554688 36.777344 20.421875 35.996094 C 19.183594 35.867188 18.074219 35.671875 17.085938 35.410156 C 16.101562 35.148438 15.082031 34.726562 14.03125 34.140625 C 12.980469 33.558594 12.105469 32.832031 11.414062 31.964844 C 10.71875 31.09375 10.148438 29.957031 9.707031 28.550781 C 9.261719 27.140625 9.039062 25.511719 9.039062 23.671875 C 9.039062 21.046875 9.894531 18.816406 11.609375 16.972656 C 10.804688 15 10.882812 12.789062 11.835938 10.339844 C 12.464844 10.144531 13.398438 10.289062 14.632812 10.777344 C 15.867188 11.265625 16.773438 11.683594 17.347656 12.03125 C 17.921875 12.375 18.382812 12.667969 18.730469 12.90625 C 20.746094 12.34375 22.828125 12.0625 24.972656 12.0625 C 27.121094 12.0625 29.199219 12.34375 31.21875 12.90625 L 32.453125 12.128906 C 33.296875 11.605469 34.296875 11.128906 35.445312 10.695312 C 36.59375 10.261719 37.472656 10.144531 38.078125 10.339844 C 39.054688 12.789062 39.140625 15 38.339844 16.972656 C 40.050781 18.816406 40.90625 21.046875 40.90625 23.671875 C 40.90625 25.515625 40.683594 27.144531 40.242188 28.566406 C 39.796875 29.984375 39.222656 31.125 38.519531 31.980469 C 37.8125 32.835938 36.933594 33.554688 35.882812 34.140625 C 34.832031 34.726562 33.8125 35.152344 32.828125 35.410156 C 31.839844 35.671875 30.730469 35.867188 29.496094 35.996094 C 30.621094 36.972656 31.183594 38.511719 31.183594 40.613281 L 31.183594 48.386719 C 31.183594 48.753906 31.238281 49.050781 31.347656 49.28125 C 31.457031 49.507812 31.628906 49.664062 31.867188 49.75 C 32.105469 49.839844 32.316406 49.890625 32.5 49.914062 C 32.6875 49.933594 32.953125 49.945312 33.296875 49.945312 L 40.582031 49.945312 C 43.160156 49.945312 45.367188 49.03125 47.199219 47.199219 C 49.03125 45.367188 49.945312 43.160156 49.945312 40.582031 L 49.945312 9.363281 C 49.945312 6.785156 49.03125 4.578125 47.199219 2.746094 Z M 47.199219 2.746094 "/>
<path style=" stroke:none;fill-rule:nonzero;fill:rgb(0%,0%,0%);fill-opacity:1;" d="M 9.886719 36.355469 C 9.734375 36.460938 9.753906 36.636719 9.949219 36.875 C 10.167969 37.089844 10.339844 37.125 10.472656 36.972656 C 10.621094 36.863281 10.601562 36.691406 10.40625 36.453125 C 10.1875 36.257812 10.015625 36.222656 9.886719 36.355469 Z M 9.886719 36.355469 "/>
<path style=" stroke:none;fill-rule:nonzero;fill:rgb(0%,0%,0%);fill-opacity:1;" d="M 8.8125 35.542969 C 8.746094 35.695312 8.824219 35.824219 9.039062 35.933594 C 9.214844 36.039062 9.355469 36.019531 9.460938 35.867188 C 9.527344 35.714844 9.453125 35.585938 9.234375 35.476562 C 9.019531 35.410156 8.878906 35.433594 8.8125 35.542969 Z M 8.8125 35.542969 "/>
<path style=" stroke:none;fill-rule:nonzero;fill:rgb(0%,0%,0%);fill-opacity:1;" d="M 10.894531 37.625 C 10.699219 37.730469 10.699219 37.925781 10.894531 38.207031 C 11.089844 38.492188 11.273438 38.566406 11.445312 38.4375 C 11.640625 38.285156 11.640625 38.078125 11.445312 37.816406 C 11.273438 37.535156 11.089844 37.472656 10.894531 37.625 Z M 10.894531 37.625 "/>
<path style=" stroke:none;fill-rule:nonzero;fill:rgb(0%,0%,0%);fill-opacity:1;" d="M 12.03125 39.085938 C 11.835938 39.257812 11.878906 39.464844 12.160156 39.703125 C 12.421875 39.964844 12.640625 39.996094 12.8125 39.800781 C 12.984375 39.628906 12.941406 39.421875 12.683594 39.183594 C 12.421875 38.921875 12.207031 38.890625 12.03125 39.085938 Z M 12.03125 39.085938 "/>
</g>
</svg>
