<?xml version="1.0" encoding="UTF-8"?>
<svg xmlns="http://www.w3.org/2000/svg" xmlns:xlink="http://www.w3.org/1999/xlink" width="60pt" height="60pt" viewBox="0 0 60 60" version="1.1">
<g id="surface1">
<path style=" stroke:none;fill-rule:nonzero;fill:rgb(0%,0%,0%);fill-opacity:1;" d="M 9.289062 20.710938 L 1.757812 20.710938 C 0.785156 20.710938 0 21.496094 0 22.46875 L 0 41.296875 C 0 42.269531 0.785156 43.054688 1.757812 43.054688 L 9.289062 43.054688 C 10.261719 43.054688 11.046875 42.269531 11.046875 41.296875 L 11.046875 22.46875 C 11.046875 21.496094 10.261719 20.710938 9.289062 20.710938 Z M 9.289062 20.710938 "/>
<path style=" stroke:none;fill-rule:nonzero;fill:rgb(0%,0%,0%);fill-opacity:1;" d="M 42.238281 41.046875 C 43.210938 41.046875 43.996094 40.261719 43.996094 39.289062 L 43.996094 35.398438 L 44.121094 35.398438 C 45.09375 35.398438 45.878906 34.613281 45.878906 33.640625 C 45.878906 32.667969 45.09375 31.882812 44.121094 31.882812 L 43.996094 31.882812 L 43.996094 22.34375 C 43.996094 21.632812 43.566406 20.992188 42.910156 20.71875 C 42.253906 20.449219 41.5 20.597656 40.996094 21.101562 C 40.996094 21.101562 35.507812 26.585938 32.90625 29.1875 C 31.738281 30.363281 31.066406 31.984375 31.066406 33.640625 C 31.066406 34.613281 31.851562 35.398438 32.824219 35.398438 L 40.480469 35.398438 L 40.480469 39.289062 C 40.480469 40.261719 41.265625 41.046875 42.238281 41.046875 Z M 35.203125 31.882812 C 35.261719 31.808594 35.328125 31.738281 35.394531 31.671875 C 36.710938 30.355469 38.769531 28.296875 40.480469 26.585938 L 40.480469 31.882812 Z M 35.203125 31.882812 "/>
<path style=" stroke:none;fill-rule:nonzero;fill:rgb(0%,0%,0%);fill-opacity:1;" d="M 27.992188 39.289062 C 27.992188 38.316406 27.203125 37.53125 26.234375 37.53125 L 19.199219 37.53125 C 19.257812 37.457031 19.324219 37.386719 19.390625 37.320312 C 21.988281 34.722656 27.476562 29.234375 27.476562 29.234375 C 27.808594 28.90625 27.992188 28.457031 27.992188 27.992188 L 27.992188 27.050781 C 27.992188 23.484375 25.09375 20.585938 21.527344 20.585938 C 17.929688 20.585938 15.0625 23.5 15.0625 27.050781 C 15.0625 28.023438 15.851562 28.808594 16.820312 28.808594 C 17.792969 28.808594 18.578125 28.019531 18.578125 27.050781 C 18.578125 25.4375 19.875 24.101562 21.527344 24.101562 C 23.152344 24.101562 24.476562 25.425781 24.476562 27.050781 L 24.476562 27.265625 C 23.050781 28.6875 19.019531 32.71875 16.902344 34.835938 C 15.734375 36.011719 15.0625 37.632812 15.0625 39.289062 C 15.0625 40.261719 15.851562 41.046875 16.820312 41.046875 L 26.234375 41.046875 C 27.203125 41.046875 27.992188 40.261719 27.992188 39.289062 Z M 27.992188 39.289062 "/>
<path style=" stroke:none;fill-rule:nonzero;fill:rgb(0%,0%,0%);fill-opacity:1;" d="M 30 3.515625 C 38.824219 3.515625 46.257812 9.574219 48.359375 17.75 C 49.066406 17.394531 49.867188 17.195312 50.710938 17.195312 L 51.84375 17.195312 C 49.464844 7.34375 40.574219 0 30 0 C 19.425781 0 10.535156 7.34375 8.15625 17.195312 L 9.289062 17.195312 C 10.132812 17.195312 10.933594 17.394531 11.640625 17.75 C 13.742188 9.574219 21.175781 3.515625 30 3.515625 Z M 30 3.515625 "/>
<path style=" stroke:none;fill-rule:nonzero;fill:rgb(0%,0%,0%);fill-opacity:1;" d="M 48.015625 45.828125 C 46.257812 49.878906 42.21875 52.71875 37.53125 52.71875 L 35.234375 52.71875 C 34.5 50.53125 32.429688 48.953125 30 48.953125 C 26.953125 48.953125 24.476562 51.429688 24.476562 54.476562 C 24.476562 57.523438 26.953125 60 30 60 C 32.429688 60 34.5 58.421875 35.234375 56.234375 L 37.53125 56.234375 C 43.914062 56.234375 49.371094 52.210938 51.507812 46.570312 L 50.710938 46.570312 C 49.726562 46.570312 48.804688 46.296875 48.015625 45.828125 Z M 48.015625 45.828125 "/>
<path style=" stroke:none;fill-rule:nonzero;fill:rgb(0%,0%,0%);fill-opacity:1;" d="M 58.242188 20.710938 L 50.710938 20.710938 C 49.738281 20.710938 48.953125 21.496094 48.953125 22.46875 L 48.953125 41.296875 C 48.953125 42.269531 49.738281 43.054688 50.710938 43.054688 L 58.242188 43.054688 C 59.214844 43.054688 60 42.269531 60 41.296875 L 60 22.46875 C 60 21.496094 59.214844 20.710938 58.242188 20.710938 Z M 58.242188 20.710938 "/>
</g>
</svg>
