<?xml version="1.0" encoding="UTF-8"?>
<svg xmlns="http://www.w3.org/2000/svg" xmlns:xlink="http://www.w3.org/1999/xlink" width="50pt" height="50pt" viewBox="0 0 50 50" version="1.1">
<g id="surface1">
<path style=" stroke:none;fill-rule:nonzero;fill:rgb(0%,0%,0%);fill-opacity:1;" d="M 46.109375 3.382812 L 3.890625 3.382812 C 1.742188 3.382812 0 5.121094 0 7.269531 L 0 11.691406 C 0 11.996094 0.25 12.246094 0.554688 12.246094 L 49.445312 12.246094 C 49.75 12.246094 50 11.996094 50 11.691406 L 50 7.269531 C 50 5.121094 48.257812 3.382812 46.109375 3.382812 Z M 7.011719 9.066406 C 6.320312 9.066406 5.757812 8.503906 5.757812 7.8125 C 5.757812 7.121094 6.320312 6.558594 7.011719 6.558594 C 7.703125 6.558594 8.265625 7.121094 8.265625 7.8125 C 8.265625 8.503906 7.703125 9.066406 7.011719 9.066406 Z M 11.03125 9.066406 C 10.339844 9.066406 9.777344 8.503906 9.777344 7.8125 C 9.777344 7.121094 10.339844 6.558594 11.03125 6.558594 C 11.722656 6.558594 12.285156 7.121094 12.285156 7.8125 C 12.285156 8.503906 11.722656 9.066406 11.03125 9.066406 Z M 15.050781 9.066406 C 14.355469 9.066406 13.796875 8.503906 13.796875 7.8125 C 13.796875 7.121094 14.355469 6.558594 15.050781 6.558594 C 15.742188 6.558594 16.304688 7.121094 16.304688 7.8125 C 16.304688 8.503906 15.742188 9.066406 15.050781 9.066406 Z M 15.050781 9.066406 "/>
<path style=" stroke:none;fill-rule:nonzero;fill:rgb(0%,0%,0%);fill-opacity:1;" d="M 34.5 28.015625 C 33.796875 28.71875 33.796875 29.863281 34.5 30.566406 C 35.203125 31.269531 36.347656 31.269531 37.050781 30.566406 C 37.753906 29.863281 37.753906 28.71875 37.050781 28.015625 C 36.347656 27.3125 35.203125 27.3125 34.5 28.015625 Z M 34.5 28.015625 "/>
<path style=" stroke:none;fill-rule:nonzero;fill:rgb(0%,0%,0%);fill-opacity:1;" d="M 49.445312 14.46875 L 0.554688 14.46875 C 0.25 14.46875 0 14.714844 0 15.023438 L 0 42.730469 C 0 44.878906 1.742188 46.617188 3.890625 46.617188 L 46.109375 46.617188 C 48.257812 46.617188 50 44.878906 50 42.730469 L 50 15.023438 C 50 14.714844 49.75 14.46875 49.445312 14.46875 Z M 29.3125 35.820312 L 8.808594 35.820312 C 8.195312 35.820312 7.695312 35.320312 7.695312 34.707031 C 7.695312 34.09375 8.195312 33.597656 8.808594 33.597656 L 29.3125 33.597656 C 29.925781 33.597656 30.421875 34.09375 30.421875 34.707031 C 30.421875 35.320312 29.925781 35.820312 29.3125 35.820312 Z M 41.976562 35.492188 C 41.542969 35.929688 40.839844 35.929688 40.40625 35.492188 L 37.726562 32.8125 C 36.183594 33.664062 34.21875 33.425781 32.929688 32.136719 C 31.359375 30.566406 31.359375 28.015625 32.929688 26.445312 C 34.5 24.875 37.050781 24.875 38.621094 26.445312 C 39.917969 27.742188 40.144531 29.710938 39.296875 31.242188 L 41.976562 33.921875 C 42.410156 34.355469 42.410156 35.058594 41.976562 35.492188 Z M 41.976562 35.492188 "/>
</g>
</svg>
